<?xml version="1.0" standalone="no"?>
<!DOCTYPE svg PUBLIC "-//W3C//DTD SVG 20010904//EN"
 "http://www.w3.org/TR/2001/REC-SVG-20010904/DTD/svg10.dtd">
<svg version="1.0" xmlns="http://www.w3.org/2000/svg"
 width="200.000000pt" height="200.000000pt" viewBox="0 0 200.000000 200.000000"
 preserveAspectRatio="xMidYMid meet">
<metadata>
Created by potrace 1.11, written by Peter Selinger 2001-2013
</metadata>
<g transform="translate(0.000000,200.000000) scale(0.100000,-0.100000)"
fill="#000000" stroke="none">
<path d="M736 1754 c-23 -13 -26 -18 -15 -26 11 -8 10 -8 -4 -4 -20 6 -77 -22
-77 -38 0 -5 -3 -6 -6 -3 -4 4 -19 -2 -33 -12 -14 -10 -34 -21 -44 -24 -10 -4
-16 -11 -13 -16 3 -5 -2 -8 -12 -7 -9 0 -16 -5 -14 -12 1 -8 -2 -11 -8 -7 -14
9 -120 -56 -113 -69 4 -6 3 -8 -2 -4 -4 4 -20 0 -36 -9 -27 -16 -27 -16 -26
-125 0 -60 4 -111 9 -114 4 -3 4 -13 -2 -23 -6 -12 -5 -22 3 -31 9 -10 9 -11
-1 -6 -8 5 -11 0 -8 -16 3 -13 5 -25 6 -28 2 -3 1 -9 0 -15 -3 -9 -2 -77 4
-340 1 -38 5 -76 10 -84 5 -8 5 -12 0 -8 -5 3 -8 -28 -7 -71 1 -43 2 -102 2
-132 l1 -55 48 -25 c26 -13 49 -27 52 -30 3 -3 23 -14 45 -26 22 -11 57 -31
78 -43 21 -12 43 -18 49 -15 6 4 8 3 5 -3 -7 -10 20 -28 36 -25 4 1 7 -3 7 -9
0 -5 5 -7 10 -4 5 3 10 3 10 -2 0 -4 25 -21 56 -37 45 -24 59 -27 73 -18 9 6
31 19 49 28 17 9 32 20 32 25 0 5 3 8 8 7 13 -4 171 95 166 104 -3 5 -2 7 3 6
14 -4 53 13 53 23 0 6 5 7 10 4 6 -3 10 -1 10 5 0 6 4 9 9 6 5 -3 14 1 21 9 7
8 18 15 26 15 7 0 22 13 32 28 11 15 33 34 49 42 15 8 54 30 86 49 50 29 56
36 45 50 -11 14 -11 14 4 3 14 -11 23 -9 60 15 24 15 46 26 51 25 4 -1 7 3 7
8 0 6 7 10 15 10 8 0 15 7 15 16 0 8 4 12 10 9 13 -8 52 19 42 30 -4 5 -1 5 6
1 23 -14 42 14 42 61 0 31 -3 42 -12 37 -8 -5 -8 -3 -2 7 9 14 13 329 4 329
-3 0 -5 16 -5 35 0 19 3 35 7 35 4 0 5 7 2 15 -4 8 -12 15 -19 15 -7 0 -18 7
-26 16 -7 8 -21 13 -31 11 -10 -3 -16 -1 -12 4 3 5 -8 14 -23 21 -15 7 -30 15
-33 18 -3 4 -25 16 -50 29 -25 12 -60 31 -77 41 -18 11 -33 16 -33 12 0 -4 -4
-2 -8 4 -18 26 -250 147 -264 138 -7 -4 -8 -2 -4 5 4 6 0 14 -11 18 -10 4 -35
17 -55 30 -21 13 -38 21 -38 17 0 -3 -7 2 -16 10 -8 9 -20 14 -25 11 -5 -4 -9
-2 -9 3 0 5 -30 24 -67 43 -38 19 -69 37 -71 42 -5 11 -24 8 -56 -9z m71 -139
c0 -8 -4 -12 -9 -9 -4 3 -8 9 -8 15 0 5 4 9 8 9 5 0 9 -7 9 -15z m117 -41 c3
-8 2 -12 -4 -9 -6 3 -10 10 -10 16 0 14 7 11 14 -7z m101 -22 c-3 -3 -11 0
-18 7 -9 10 -8 11 6 5 10 -3 15 -9 12 -12z m-30 -72 c3 -6 -1 -7 -9 -4 -18 7
-21 14 -7 14 6 0 13 -4 16 -10z m-150 -9 c3 -5 2 -12 -3 -15 -5 -3 -9 1 -9 9
0 17 3 19 12 6z m-355 -52 c0 -5 -4 -9 -8 -9 -5 0 -9 7 -9 15 0 8 4 12 9 9 4
-3 8 -9 8 -15z m917 -24 c0 -8 -4 -12 -9 -9 -5 3 -6 10 -3 15 9 13 12 11 12
-6z m-919 -40 c-3 -3 -9 2 -12 12 -6 14 -5 15 5 6 7 -7 10 -15 7 -18z m326 3
c-3 -4 -9 -8 -15 -8 -5 0 -9 4 -9 8 0 5 7 9 15 9 8 0 12 -4 9 -9z m-184 -34
c0 -8 -19 -13 -24 -6 -3 5 1 9 9 9 8 0 15 -2 15 -3z m45 -4 c-3 -5 -12 -10
-18 -10 -7 0 -6 4 3 10 19 12 23 12 15 0z m775 -60 c0 -5 -2 -10 -4 -10 -3 0
-8 5 -11 10 -3 6 -1 10 4 10 6 0 11 -4 11 -10z m134 -138 c3 -5 -1 -9 -9 -9
-8 0 -12 4 -9 9 3 4 7 8 9 8 2 0 6 -4 9 -8z m1 -210 c-3 -3 -11 0 -18 7 -9 10
-8 11 6 5 10 -3 15 -9 12 -12z m-261 -58 c3 -8 2 -12 -4 -9 -6 3 -10 10 -10
16 0 14 7 11 14 -7z m71 -14 c-3 -5 -12 -10 -18 -10 -7 0 -6 4 3 10 19 12 23
12 15 0z m165 4 c0 -8 -19 -13 -24 -6 -3 5 1 9 9 9 8 0 15 -2 15 -3z m74 -2
c3 -5 -1 -9 -9 -9 -8 0 -12 4 -9 9 3 4 7 8 9 8 2 0 6 -4 9 -8z m-204 -78 c0
-8 -19 -13 -24 -6 -3 5 1 9 9 9 8 0 15 -2 15 -3z m-42 -149 c-3 -3 -9 2 -12
12 -6 14 -5 15 5 6 7 -7 10 -15 7 -18z m-443 -23 c-3 -3 -11 0 -18 7 -9 10 -8
11 6 5 10 -3 15 -9 12 -12z m-355 -34 c0 -4 -4 -8 -9 -8 -6 0 -12 4 -15 8 -3
5 1 9 9 9 8 0 15 -4 15 -9z m60 2 c0 -5 -4 -10 -10 -10 -5 0 -10 5 -10 10 0 6
5 10 10 10 6 0 10 -4 10 -10z m64 -2 c-3 -4 -9 -8 -15 -8 -5 0 -9 4 -9 8 0 5
7 9 15 9 8 0 12 -4 9 -9z m-199 -38 c-3 -5 -12 -10 -18 -10 -7 0 -6 4 3 10 19
12 23 12 15 0z m270 -8 c-3 -3 -11 0 -18 7 -9 10 -8 11 6 5 10 -3 15 -9 12
-12z m139 -138 c3 -8 2 -12 -4 -9 -6 3 -10 10 -10 16 0 14 7 11 14 -7z m-163
-107 c-10 -9 -11 -8 -5 6 3 10 9 15 12 12 3 -3 0 -11 -7 -18z"/>
</g>
</svg>
